# xmcd
#
# Track frame offsets:
#	150
#	13632
#	25028
#	40452
#	50967
#	63403
#	77855
#	89010
#	100203
#	113567
#	123930
#	136169
#	148484
#	159827
#	170614
#	181982
#	193181
#	205612
#	217568
#	232174
#	243160
#	253410
#	264878
#	275639
#	287704
#	301473
#	316812
#
# Disc length: 4408 seconds
#
# Revision: 1
# Processed by: cddbd v1.5.2PL0 Copyright (c) Steve Scherf et al.
# Submitted via: audiograbber 1.83.01
#
DISCID=8911361b
DTITLE=Various Artist - Early Decca Label Harmony - vol. 3 (1935-1942)
DYEAR=1900
DGENRE=Vocal Harmony
TTITLE0=Palmer Brothers Trio (with the Earl Hines Orchestra) - Dissapointed in 
TTITLE0=Love
TTITLE1=Charioteers - Snowball
TTITLE2=Vocal Trio (with the Jimmy Lunceford Orchestra) - Since My Best Gal Tur
TTITLE2=ned Me Down
TTITLE3=Babs and her Brothers - When a Great Love Comes Along
TTITLE4=Babs and her Brothers - Yankee Doodle Never Went to Town
TTITLE5=Vocal Trio (with the Jimmy Lunceford Orchestra) - T'ain't Good
TTITLE6=Four Southerners - Trouble in Mind
TTITLE7=King's Jesters - The Fly Outflew the Flea
TTITLE8=Louis Armstrong and the Mills Brothers - Flat Foot Floogee
TTITLE9=Dolores Jackson and the Cabin Boys - Cloudy
TTITLE10=Three Peppers - Fuzzy Wuzzy
TTITLE11=Three Peppers - Swing Out Uncle Wilson
TTITLE12=Royal Rhythm Boys - Beat It Out Bumpin' Boy
TTITLE13=Norfolk Jazz Quartet - Beedle De Beedle Dee Bop Bop
TTITLE14=Alphabetical Four - When the Moon Goes Down in the Valley
TTITLE15=Three Peppers - Hot Dogs
TTITLE16=Doc Sausage and his Five Pork Chops - WHAM
TTITLE17=Doc Sausage and his Five Pork Chops - Doctor Sausage's Blues
TTITLE18=Mildred Bailey and the Delta Rhythm Boys - Jenny
TTITLE19=Virginia Four [Norfolk Jazz Quartet] - I'd Feel Much Better
TTITLE20=Five Rocquettes - Reminiscing
TTITLE21=Hardin Brothers - I Miss You So
TTITLE22=Variety Boys - Uptown Jive
TTITLE23=3 Bits of Rhythm - This is the Boogie, the Woogie, the Boogie
TTITLE24=Trevor Bacon and Ensemble (with the Lucky Millinder Orchestra) - Hey Hus
TTITLE24=s!
TTITLE25=Lucky Millinder and his Orchestra - Ride, Red, Ride
TTITLE26=Grooveneers - I'm Not That Way Anymore
EXTD=
EXTT0=
EXTT1=
EXTT2=
EXTT3=
EXTT4=
EXTT5=
EXTT6=
EXTT7=
EXTT8=
EXTT9=
EXTT10=
EXTT11=
EXTT12=
EXTT13=
EXTT14=
EXTT15=
EXTT16=
EXTT17=
EXTT18=
EXTT19=
EXTT20=
EXTT21=
EXTT22=
EXTT23=
EXTT24=
EXTT25=
EXTT26=
PLAYORDER=
